PathFileType	4	(X/Y/Z)	69_2_80_p0_0-349.trc
DataRate	CameraRate	NumFrames	NumMarkers	Units	OrigDataRate	OrigDataStartFrame	OrigNumFrames
60.0	60.0	7	27	m	60.0	131	350
Frame#	Time	RHip			RKnee			RAnkle			RBigToe			RSmallToe			RHeel			LHip			LKnee			LAnkle			LBigToe			LSmallToe			LHeel			Neck			Head			Nose			RShoulder			RElbow			RWrist			RThumb			RIndex			RPinky			LShoulder			LElbow			LWrist			LThumb			LIndex			LPinky			
		X1	Y1	Z1	X2	Y2	Z2	X3	Y3	Z3	X4	Y4	Z4	X5	Y5	Z5	X6	Y6	Z6	X7	Y7	Z7	X8	Y8	Z8	X9	Y9	Z9	X10	Y10	Z10	X11	Y11	Z11	X12	Y12	Z12	X13	Y13	Z13	X14	Y14	Z14	X15	Y15	Z15	X16	Y16	Z16	X17	Y17	Z17	X18	Y18	Z18	X19	Y19	Z19	X20	Y20	Z20	X21	Y21	Z21	X22	Y22	Z22	X23	Y23	Z23	X24	Y24	Z24	X25	Y25	Z25	X26	Y26	Z26	X27	Y27	Z27	
131	2.183333333333333	0.28606909396234664	0.5711508788006098	0.4857999392018903	0.23641879681790504	0.5703589263856482	0.9090604478169296	0.2177478191712512	0.6144664244649946	1.331482429824385	0.25684053499006937	0.4551247579012127	1.3512823640836802	0.30728410715879334	0.4746040536461744	1.3384833349847387	0.1773826757605654	0.6933117322711363	1.3938412065500994	0.11465236041469032	0.4708064651323135	0.459826253492452	0.0528876080753741	0.5227697998161999	0.8997584469447402	0.034838063768298566	0.5640603527154485	1.3282841138079553	0.11568167084081789	0.4015280775098378	1.333243177338966	0.05772486216865722	0.4025437408584552	1.3156355590122766	0.03825337788509256	0.5936438138903061	1.3808694748531445	0.2290279564673338	0.5197782327297428	-0.01964575235466745	0.2536209305253896	0.4884902896817963	-0.2524782474590752	0.2594996161161927	0.4550020793481308	-0.13071838898349936	0.3592004650274716	0.5976375815201875	0.07978031056839469	0.3746334960783098	0.6266053977658997	0.3497908379105451	0.4294712152649849	0.49470708613361974	0.5510430628738973	0.4033574830532217	0.45606148333852065	0.6624301743280662	0.42589216459863627	0.45950415756473295	0.692788654330293	0.42124511088546773	0.5433277199082039	0.7008217743530262	0.06811124637870675	0.5026771408515094	0.04923212425686868	0.03935403357023756	0.4291570091026321	0.29712440527791995	-0.001631875354754781	0.35436445350542395	0.49351836064171833	0.030260581936736548	0.31629398546319354	0.5881300150452794	0.010312308080979632	0.3049044507735479	0.6154202847158498	-0.03605377893133466	0.3704178355317624	0.6271057495270758
132	2.2	0.28990225812863224	0.5756622709369235	0.49071769985726404	0.23688650932404748	0.5593878028253297	0.9132559015754188	0.22012529152304783	0.6323966030958265	1.3398387488074792	0.2580364359671929	0.4553986023867352	1.3469841611793474	0.3055285054858744	0.4895174832785018	1.3422099548726618	0.1759620260825052	0.7083347327869199	1.4015418476639026	0.1270877729775184	0.46373094812179	0.46163077223666893	0.05298927739843015	0.5225751058446746	0.8994578367169737	0.034772047030592085	0.5642703339034869	1.328423091021764	0.11655546628396922	0.40280634528494863	1.3292720282512898	0.06095153872555537	0.4061706966604975	1.3167447853491978	0.03873403758128755	0.5934938001678519	1.3801042286963656	0.22905610312467858	0.5198015753201212	-0.019668335309678542	0.25365401367256224	0.48858088589965043	-0.25241042263897895	0.25940446601073186	0.4552386207088034	-0.13058570284582738	0.3675200531869242	0.5731258270600189	0.07660505263530386	0.37474871874381066	0.6279386584852366	0.353840567559932	0.42567426551379395	0.5033298630849902	0.5540047384049626	0.39439687263247475	0.46655119173708687	0.6698894232192104	0.4249318146513365	0.4599365819808774	0.6968291845994921	0.4197396911913725	0.5460821408587385	0.7048568197989991	0.06779825121175194	0.5038188893835348	0.05307118439943202	0.03939900713211155	0.428830657937765	0.29704076954617586	-0.0021981054793714034	0.35567308393549796	0.49815593693635546	0.032982782822093805	0.30485784917801706	0.5823030102174253	-0.0076367957526740915	0.32201760772914995	0.6292065827694533	-0.0338943195894037	0.36813281706378437	0.6299605433096426
133	2.216666666666667	0.2900166748841894	0.5752867156083616	0.4904564995139062	0.23671272501435792	0.5577978624176495	0.908622782376463	0.2164284578923616	0.6293273472560003	1.3390965300157982	0.2555371654989126	0.4687860601742671	1.3586524226802454	0.30552022720257077	0.4896580406606439	1.3422783177599913	0.17589029272623705	0.7085017090425819	1.4013787552179633	0.12396326163261759	0.45965444690067514	0.45624931298670474	0.053959967003014045	0.5227065719338593	0.8955905639021229	0.03546209040457129	0.5630029542659627	1.331760785548215	0.11576828887897417	0.4021936372512254	1.3335376868136484	0.06761832564083796	0.39110132023359095	1.3080369399022573	0.03924643844852725	0.5922038909261673	1.3842964833570808	0.22902756779594544	0.5197727432276535	-0.01957936346329522	0.2536651946761353	0.48850125966594204	-0.25245430295327537	0.26724376910476266	0.4445648803947331	-0.1312778147879537	0.36745314267561074	0.57328437774447	0.07648403872964647	0.3747910110884928	0.6280665874074599	0.35352626133081266	0.42942880211981604	0.5189749821560097	0.5536372220617884	0.4064784037026948	0.4532241061985006	0.6521572997879462	0.42885629549540927	0.4602470534026706	0.6801027088326735	0.3967580428817749	0.5867681934802558	0.7039159283993603	0.06779975743653427	0.5037759959373732	0.05306801883970787	0.03933717377809173	0.428822630755202	0.2970057145524407	-0.00215930489853543	0.3557712517347582	0.49796146172476874	0.03125425692041318	0.31666535655324174	0.5823903628967203	-0.007878361604637953	0.3235691928388712	0.6198173740876695	-0.03224645126957953	0.35679242686870116	0.6227121121027435
134	2.2333333333333334	0.28562729723539326	0.5733388769483266	0.486075327142343	0.23596897918148846	0.5595413188695924	0.9179409931130651	0.2202207177237135	0.6321863984357533	1.3399189594698113	0.25803053649331004	0.4553150516967862	1.346920139102752	0.3065174558942517	0.47624460084200393	1.3350814346193256	0.17606896349609785	0.7081952882920252	1.4014403510790063	0.11433499754810747	0.47133675448646417	0.45614178199363	0.05282617931333925	0.5227457744124684	0.8996087103342247	0.035351519343251224	0.5631046676155969	1.3318552307616642	0.11828949849882128	0.39005115596113477	1.3220772672491135	0.057491722416514054	0.4028788781699152	1.3160304251374515	0.039015913600594414	0.5925040963110159	1.3844998059800604	0.2290398829442919	0.5198041515347941	-0.019479066825628125	0.2536914250431111	0.48841886892324315	-0.25243972401581677	0.26715797994132756	0.44527463477431545	-0.1279037014047912	0.36726630445568853	0.5858113447718473	0.07811523691958379	0.3747370544153398	0.6281974031319307	0.3537518457580569	0.4290474549544074	0.5187857241152514	0.5576185023078722	0.40918816029241106	0.4569969502623825	0.6616156564612363	0.43136131805638506	0.46305046230636243	0.6931648067789408	0.4146077337829192	0.5722034875950449	0.7024998555393783	0.06779527217704434	0.5037172493069562	0.05312406094461742	0.03918451151628275	0.4299153884327637	0.30122862564698194	-0.0020375937074213453	0.3553991346450108	0.4981872007729954	0.03195056775406042	0.3042150360908803	0.5860497885693752	-0.012442972240101907	0.3219237958109746	0.6238022664259343	-0.03527674238234778	0.35644758003485827	0.6306807128483941
135	2.25	0.2886836020236321	0.5762598391290462	0.4903399754411771	0.23566034090744914	0.5707572622361352	0.913870967316878	0.21842924485131615	0.6134538702585413	1.3353394195574402	0.2477425211624233	0.4676102242244196	1.3597176274003497	0.30644071355291136	0.47618476747238875	1.335207775224393	0.17596684890355513	0.7084001175409284	1.4012962700990501	0.11748131883457391	0.4753466484253439	0.46144890865667576	0.05171125376960189	0.5226745120770161	0.9037228230042808	0.035361468326490134	0.5630144838519366	1.3317677125000553	0.11836516445351154	0.3900850177843787	1.3220893224388053	0.05759189547689306	0.40269514056454303	1.3159635721601568	0.0390560952449869	0.5924659585056656	1.3844923718656132	0.2290634577181679	0.5197124968443392	-0.019327581795082285	0.25369091850031983	0.4883469181994326	-0.2524476134744863	0.26723959233738837	0.4450164238813229	-0.12785517566013932	0.3672692601071518	0.5858183101102319	0.07808884150104525	0.37435985090928275	0.6274431621918151	0.3458021227986364	0.4366705841445333	0.5184341573060035	0.5564929416789237	0.41707568305680465	0.4445075777698309	0.6481167141140961	0.4318770531909447	0.46240564680924606	0.6804507834830786	0.42212581886773004	0.56109783048283	0.6885072558619557	0.06779525521272561	0.5037739023536966	0.05311187605931557	0.03943652323558848	0.4288014692902917	0.29696948318634286	-0.010849934572526048	0.3645182182569356	0.4972480294581915	0.02268571472053384	0.31340933131727267	0.5929257952323469	-0.02246892249101644	0.3304643479741591	0.6228119602088804	-0.03878003886807416	0.3541967018065862	0.6270895869340126
136	2.2666666666666666	0.2849800826951028	0.5734162996273688	0.4899805953365083	0.23467920215986626	0.5729363291264967	0.9231432700004772	0.21765381513327672	0.6148533848848043	1.3317395043315394	0.24778327060712374	0.4676179607440317	1.359728886964166	0.3064076010847525	0.47624691169463335	1.3351815595707792	0.17741964393812723	0.6931318595314726	1.393644714729812	0.11748461400095356	0.47536702997768265	0.46150219216190547	0.05175509037078889	0.5226379401267313	0.9037657625342085	0.03537225171640652	0.5629311930076397	1.3317949175830919	0.11839927870803138	0.3899615345124103	1.322050816977064	0.05758883774368384	0.4026875108591682	1.3160366831153814	0.03892540381963659	0.5927035992246569	1.3847587408171855	0.2292311244990619	0.5192574007758256	-0.01563882263938266	0.2537701688708107	0.48815225908195387	-0.24942380949127654	0.26381343104484606	0.44218900528868643	-0.12784478726031503	0.36722229645950183	0.5730238408149564	0.08052206222331568	0.37413362035163533	0.6411058390204427	0.35237040297773226	0.4367310808339503	0.5304430787288865	0.5599537881553852	0.42102924022262983	0.45759896062256794	0.6518569471100174	0.4388933876927571	0.46143484258927603	0.6921841382272501	0.43419342567233754	0.5494052266098359	0.6913319373949438	0.06780796325071431	0.5037970993706157	0.05310588245085171	0.03941630783124193	0.4285965780588953	0.2969927426251425	-0.011801749801312992	0.3646364661926035	0.5004882317895328	0.02249218856495935	0.3134712724577664	0.592562912726334	-0.03299662717833558	0.3406260322793156	0.627288390742217	-0.03872158808461169	0.3549840552356868	0.6264991631941645
137	2.283333333333333	0.28501598171279097	0.5731295566453698	0.48993860581597803	0.23595200144216041	0.5594693814748376	0.9179147874272972	0.22117635572485858	0.6180950755982924	1.3326538184150896	0.24774791135140925	0.46766352403959105	1.3598178443728657	0.305375981620151	0.4896594470169684	1.3422810579738895	0.17590103940657553	0.7085218335630995	1.401659949379242	0.11394434294351927	0.4731523409578119	0.46130111148560987	0.05172054584148305	0.5226507379929973	0.9038180473918352	0.035377007150149166	0.5631110681247891	1.3317480282164227	0.11815377811448399	0.39025411545979094	1.322093333514101	0.05745676764552621	0.4029031627896429	1.3160633994953055	0.03901392348885113	0.5931968817404765	1.3848940729542158	0.2289643752047907	0.5191418493985134	-0.012352670616947297	0.253720316641698	0.48813969971087345	-0.2524930838825901	0.2637485397348727	0.4421424025927593	-0.12753603388391635	0.36704309451634526	0.5855184594357444	0.08216789873365576	0.3824049722102271	0.6281893853604131	0.3492612330807581	0.43683240028749853	0.5304453669857174	0.5604199946697477	0.42405325666053084	0.45875547696728164	0.6632298904146285	0.4351058942781656	0.4765758528472826	0.7029410973692685	0.44201217613412214	0.5493740216280163	0.6950983346615112	0.06780853149301365	0.5038638812248861	0.0531089577801191	0.039478138347929174	0.4285446166789522	0.29701895091089564	-0.012103764086009636	0.3653822203304639	0.5050998716779374	0.013006637013432857	0.3222698745941096	0.5999569896928961	-0.042635761067937844	0.349212897601922	0.6346785517320997	-0.043102497438893966	0.35264225223388856	0.6273197366657136
